<svg width="843" height="620" viewBox="0 0 843 620" fill="none" xmlns="http://www.w3.org/2000/svg">
<g clip-path="url(#clip0_755_346)">
<path d="M540.958 38.724C540.974 48.4797 537.29 57.8784 530.65 65.0256C530.146 65.5743 529.615 66.105 529.076 66.6177C509.067 51.2176 488.083 37.1289 466.254 24.4399C466.524 23.7563 466.812 23.0817 467.127 22.416C470.841 14.4194 477.174 7.93016 485.078 4.02148C492.981 0.112811 501.982 -0.981127 510.592 0.920593C519.201 2.82231 526.904 7.60577 532.426 14.4798C537.948 21.3539 540.958 29.9068 540.958 38.724Z" fill="#F8FF76"/>
<path d="M572.36 117.521L572.324 117.925C546.859 116.171 521.397 114.414 495.938 112.654C477.543 111.386 458.51 109.947 442.256 101.24C436.085 97.9384 430.076 93.5308 423.078 93.225C414.398 92.8382 406.824 98.9099 400.87 105.242C365.672 142.734 355.48 200.059 315.992 232.99C340.897 171.573 370.632 112.226 404.917 55.5087C411.25 45.0295 418.761 33.8397 430.517 30.4215C441.734 27.1563 453.212 31.9237 463.538 38.0403C465.751 39.3536 467.91 40.7299 469.997 42.0971C485.909 52.5134 501.56 63.3284 516.951 74.5422C535.849 88.2957 554.319 102.622 572.36 117.521Z" fill="#42A369"/>
<path d="M654.719 197.037C627.5 158.618 595.877 123.517 560.496 92.4515C550.322 83.5104 539.849 74.8992 529.076 66.6177C509.068 51.2176 488.083 37.1288 466.255 24.4399C459.094 20.2842 451.85 16.2934 444.523 12.4675C438.829 9.50812 432.766 6.8006 426.2 7.22336C421.606 7.61602 417.217 9.30341 413.544 12.0897C405.475 17.9815 400.132 27.1834 395.733 35.9536C391.883 43.6443 388.294 51.488 384.633 59.2867C383.077 62.6059 381.521 65.9161 379.911 69.2083C374.298 80.74 368.553 92.2087 362.677 103.614C355.103 118.312 347.31 132.899 339.298 147.375C322.469 177.806 304.709 207.687 286.021 237.02C258.55 280.133 229.16 321.939 197.851 362.438C194.01 367.394 192.427 368.546 188.532 373.466C187.633 374.617 186.032 372.998 186.922 371.856C219.403 330.802 247.684 292.016 276.198 248.102C297.696 214.991 318.013 181.146 337.149 146.566C343.292 135.475 349.307 124.315 355.193 113.086C364.718 94.9071 373.914 76.5572 382.78 58.0364C385.119 53.161 387.434 48.2677 389.725 43.3565C397.002 27.768 407.598 4.58776 428.062 4.90259C434.079 4.99259 439.665 7.4302 444.936 10.1287C450.306 12.8902 455.577 15.8226 460.84 18.7999C462.944 19.9873 465.04 21.1926 467.127 22.416C475.394 27.2193 483.537 32.2235 491.558 37.4287C504.942 46.1089 517.973 55.3078 530.65 65.0255C536.668 69.64 542.596 74.3594 548.433 79.1837C585.063 109.489 617.999 144.001 646.56 182.006C650.005 186.585 653.379 191.214 656.68 195.895C657.525 197.091 655.555 198.224 654.719 197.037Z" fill="#E4E4E4"/>
<path d="M562.521 81.0028C563.71 79.6773 564.892 78.3518 566.089 77.0264C575.526 66.5891 585.653 56.273 598.612 50.2894C604.792 47.3462 611.537 45.7826 618.381 45.707C625.443 45.9008 632.406 47.4193 638.907 50.1833C641.997 51.4179 645.02 52.8192 647.996 54.3113C651.397 56.023 654.737 57.8485 658.062 59.689C664.304 63.1428 670.464 66.7481 676.543 70.505C688.639 77.9807 700.357 86.027 711.695 94.644C717.573 99.1128 723.329 103.728 728.965 108.49C734.206 112.913 739.341 117.455 744.37 122.116C745.446 123.108 747.052 121.502 745.976 120.51C744.651 119.275 743.31 118.048 741.969 116.836C738.182 113.413 734.335 110.055 730.426 106.763C723.299 100.749 715.988 94.9671 708.491 89.4178C696.834 80.7832 684.776 72.7343 672.317 65.2712C666.091 61.5447 659.779 57.9747 653.382 54.5613C651.45 53.5312 649.496 52.5238 647.519 51.5694C643.034 49.3069 638.373 47.4097 633.583 45.8964C626.797 43.7012 619.617 42.9959 612.534 43.8286C605.695 44.8234 599.105 47.1029 593.113 50.5469C580.389 57.6591 570.52 68.6569 560.916 79.3895C559.946 80.4802 561.544 82.0935 562.521 81.0028Z" fill="#E4E4E4"/>
<path d="M301.8 189.161L271.308 178.008L256.169 172.471C251.278 170.502 246.29 168.784 241.223 167.323C236.794 166.058 232.091 166.118 227.695 167.496C223.775 168.947 220.186 171.171 217.143 174.037C214.034 176.9 211.142 179.989 208.489 183.279C205.193 187.24 201.945 191.243 198.683 195.232C185.221 211.696 171.846 228.232 158.56 244.839C145.273 261.446 132.076 278.124 118.968 294.872C105.827 311.661 92.7767 328.52 79.8168 345.449C78.2292 347.523 76.6429 349.598 75.0581 351.674C74.1824 352.821 72.2081 351.69 73.0961 350.527C86.1515 333.428 99.298 316.398 112.536 299.438C125.806 282.438 139.167 265.51 152.621 248.654C166.074 231.799 179.618 215.016 193.253 198.307C196.65 194.144 200.052 189.985 203.46 185.832C206.335 182.328 209.178 178.787 212.331 175.525C218.119 169.539 225.35 164.249 234.006 164.106C239.096 164.021 244.021 165.636 248.749 167.347C253.847 169.191 258.932 171.07 264.023 172.932L294.728 184.162L302.404 186.97C303.766 187.468 303.177 189.664 301.8 189.161Z" fill="#E4E4E4"/>
<path d="M602.625 63.4226C618.12 55.4589 637.963 57.0187 652.202 66.968C625.043 71.6537 598.181 77.9233 571.753 85.7446C582.727 79.3133 591.312 69.237 602.625 63.4226Z" fill="#42A369"/>
<path d="M652.355 66.9407L655.338 69.3653C654.329 68.5167 653.28 67.721 652.202 66.9681C652.253 66.9593 652.304 66.9495 652.355 66.9407Z" fill="#F2F2F2"/>
<path d="M218.292 189.272C221.293 185.618 224.538 181.793 229.028 180.309L233.219 180.474C201.312 236.854 158.22 286.119 106.587 325.245C143.822 279.92 181.057 234.596 218.292 189.272Z" fill="#42A369"/>
<path d="M574.501 200.831C571.849 208.95 566.082 215.685 558.467 219.553C550.851 223.422 542.011 224.108 533.891 221.461C532.971 221.161 532.071 220.821 531.191 220.441C523.8 217.273 517.862 211.455 514.544 204.131C511.226 196.806 510.768 188.506 513.261 180.861C514.051 178.427 515.132 176.096 516.48 173.921C520.621 167.216 527.075 162.262 534.622 159.996C542.169 157.73 550.285 158.31 557.434 161.626C564.582 164.941 570.267 170.762 573.412 177.987C576.557 185.212 576.945 193.339 574.501 200.831Z" fill="#A0616A"/>
<path d="M513.465 182.474C517.929 184.673 522.985 181.485 526.892 178.315L525.494 179.498C532.272 186.229 535.374 195.845 536.841 205.294C538.309 214.734 538.385 224.373 540.26 233.75C542.136 243.117 546.132 252.55 553.716 258.353C563.877 266.126 578.005 265.78 590.596 263.558C590.763 263.526 590.92 263.502 591.087 263.47C587.807 253.672 586.539 243.313 587.359 233.014C590.621 243.377 596.259 252.835 603.823 260.634C612.178 258.427 620.341 255.547 628.231 252.023C633.337 249.737 638.841 246.595 640.307 241.194C641.776 235.835 638.551 230.164 634.196 226.725C629.841 223.287 624.471 221.461 619.494 218.992C614.526 216.534 609.62 213.053 607.674 207.853C603.185 195.891 616.462 182.355 611.463 170.591C608.998 164.806 602.846 161.61 597.059 159.135C588.225 155.366 579.145 152.199 569.884 149.656C561.753 147.421 553.258 145.663 544.938 146.987C536.618 148.311 528.43 153.279 525.36 161.135C520.355 162.77 515.04 164.615 511.796 168.78C508.554 172.936 508.738 180.148 513.465 182.474Z" fill="#2F2E41"/>
<path d="M332.111 428.491C359.113 424.849 385.998 434.643 413.187 436.413C440.242 438.173 467.611 431.365 491.117 417.894C507.738 408.369 528.149 409.786 544.016 420.519C544.415 420.789 544.82 421.05 545.229 421.301C558.333 429.322 574.515 429.864 589.876 430.177L741.46 433.262C741.46 433.262 777.819 441.88 783.061 460.04C788.301 478.2 776.69 497.857 760.642 507.843C744.594 517.829 725.125 520.301 706.318 522.186C585.379 534.291 463.422 531.796 343.079 514.755C320.772 511.592 294.605 504.845 287.002 483.636C277.807 457.988 305.109 432.133 332.111 428.491Z" fill="#CCCCCC"/>
<path d="M672.566 464.462L577.369 453.045C568.488 451.98 560.395 447.431 554.869 440.398C549.342 433.366 546.836 424.426 547.901 415.546C548.966 406.666 553.515 398.572 560.548 393.046C567.58 387.52 576.52 385.013 585.4 386.078L680.597 397.496C689.474 398.565 697.564 403.115 703.087 410.147C708.61 417.178 711.114 426.115 710.049 434.993C708.984 443.871 704.438 451.962 697.409 457.488C690.38 463.014 681.444 465.523 672.566 464.462Z" fill="#2F2E41"/>
<path d="M653.901 225.054L667.854 238.588L685.69 246.5C685.69 246.5 680.43 355.105 686.501 362.831C692.572 370.556 686.328 369.996 686.64 379.123C686.951 388.25 688.117 407.024 688.117 407.024C638.598 426.087 598.377 421.933 569.592 389.224C569.393 387.391 569.827 385.544 570.822 383.991C571.817 382.438 573.312 381.271 575.061 380.685C581.444 378.22 571.693 361.975 576.896 360.078C582.098 358.181 577.785 335.797 577.785 335.797L587.705 291.364L584.992 283.745L598.993 240.8L614.794 237.087L622.589 223.242L653.901 225.054Z" fill="#FD8D3A"/>
<path d="M467.345 327.256C468.86 326.014 470.63 325.118 472.529 324.633C474.428 324.149 476.41 324.086 478.336 324.45C480.262 324.814 482.084 325.596 483.675 326.741C485.266 327.885 486.587 329.365 487.544 331.075L534.448 322.72L524.654 345.458L481.615 349.906C478.636 351.324 475.239 351.599 472.07 350.68C468.901 349.761 466.179 347.712 464.42 344.92C462.661 342.128 461.987 338.788 462.526 335.532C463.065 332.277 464.78 329.332 467.345 327.256Z" fill="#FFB6B6"/>
<path d="M497.842 350.161L583.803 343.403L583.974 343.078C584.171 342.706 595.933 320.425 606.366 299.571C607.973 296.36 609.548 293.182 611.044 290.124C611.69 288.804 612.32 287.508 612.934 286.237C617.076 277.661 620.376 270.411 621.665 266.603C624.647 258.079 624.624 248.792 621.6 240.284L621.513 240.078L621.32 239.966C617.358 237.697 612.741 236.846 608.23 237.554C603.72 238.261 599.585 240.484 596.508 243.857C581.737 260.219 570.971 279.791 565.06 301.026L561.711 313.11L500.21 326.885L497.842 350.161Z" fill="#FD8D3A"/>
<path d="M339.287 575.857L325.673 569.346L344.374 512.441L364.467 522.051L339.287 575.857Z" fill="#A0616A"/>
<path d="M430.558 566.683C429.568 567.303 428.578 567.913 427.578 568.523C425.588 569.743 423.578 570.943 421.568 572.123C420.558 572.713 419.538 573.303 418.528 573.883V573.913L418.468 573.923L418.448 573.933L416.908 574.313L414.698 568.473L413.678 565.783L412.238 561.973L409.598 555.003L395.698 518.303L417.308 512.973L418.118 516.283H418.128L418.528 517.923L426.078 548.543L427.618 554.803L427.668 554.993L428.598 558.733L429.398 561.973L430.288 565.593L430.558 566.683Z" fill="#A0616A"/>
<path d="M559.47 437.801C558.1 440.001 556.7 442.191 555.29 444.361C552.67 448.401 549.98 452.381 547.22 456.301C547.22 456.311 547.21 456.311 547.2 456.321C545.59 457.813 543.811 459.111 541.9 460.191C541.82 460.251 541.73 460.291 541.65 460.341C540.243 461.119 538.745 461.72 537.19 462.131C536.63 462.271 536.06 462.411 535.5 462.551C533.48 463.031 531.48 463.441 529.49 463.801C525.95 464.431 522.45 464.881 518.97 465.161C518.69 465.191 518.41 465.211 518.13 465.231C503.82 466.281 489.89 464.591 475.35 461.821C468.17 460.461 460.84 458.831 453.25 457.141C450.77 456.581 448.28 456.031 445.76 455.481C445.57 455.441 445.37 455.391 445.17 455.351C441.57 454.561 437.91 453.781 434.16 453.011C429.44 452.041 424.57 451.101 419.51 450.211L419.87 457.341C420.17 462.826 421.31 468.232 423.25 473.371C425.41 479.691 427.12 484.691 423.51 495.101L421.77 500.141C422.672 502.644 422.982 505.321 422.675 507.964C422.368 510.606 421.452 513.142 420 515.371L419.65 515.901L434.16 552.611L435.1 554.991H427.67L418.53 555.001H403.04L380.69 510.161L379.62 508.021V507.911L381.93 421.741C381.96 420.981 382.02 420.211 382.12 419.451C382.528 415.996 383.619 412.657 385.331 409.628C387.043 406.599 389.341 403.942 392.09 401.811C394.725 399.752 397.743 398.237 400.969 397.354C404.195 396.472 407.564 396.24 410.88 396.671L418.53 397.661L434.16 399.681L445.17 401.111L445.39 401.141L477.86 405.341L480.19 395.841L480.62 395.681L494.29 390.671L541.57 373.341L541.69 373.301L544.8 372.161L545.17 372.761C545.28 372.941 545.39 373.121 545.49 373.301C548.564 378.812 551.067 384.622 552.96 390.641C556.144 400.474 558.765 410.48 560.81 420.611C560.9 421.051 560.98 421.451 561.05 421.811L561.08 421.921C561.11 422.091 561.13 422.201 561.14 422.231C562.23 426.771 561.47 432.311 559.47 437.801Z" fill="#2F2E41"/>
<path d="M561.466 406.045C561.316 405.405 561.126 404.755 560.926 404.125C559.338 399.353 557.489 394.673 555.386 390.105C553.026 384.905 550.196 379.335 546.826 373.305C545.196 370.385 543.443 367.348 541.566 364.195C540.626 362.615 539.649 361.005 538.636 359.365C538.596 359.289 538.553 359.216 538.506 359.145L538.216 358.665L491.436 364.925L474.016 367.255L472.976 375.935L472.726 378.085C472.716 378.085 472.716 378.085 472.726 378.095L472.026 383.955V383.965L471.096 391.705L471.016 391.695L445.166 388.345L418.526 384.895L404.216 383.045C400.9 382.612 397.53 382.844 394.305 383.727C391.079 384.609 388.061 386.125 385.426 388.185C382.677 390.316 380.379 392.974 378.668 396.002C376.956 399.031 375.864 402.37 375.456 405.825C375.366 406.525 375.306 407.245 375.276 407.955L361.776 439.945C353.698 459.076 348.553 479.318 346.516 499.985L336.616 531.635L338.026 531.765L359.006 533.715L364.546 534.235L376.746 516.425C378.136 514.395 379.456 512.305 380.686 510.165C382.711 506.67 384.511 503.049 386.076 499.325L412.466 436.525C414.506 436.875 416.526 437.208 418.526 437.525C427.776 439.025 436.656 440.248 445.166 441.195C472.836 444.285 496.796 444.525 518.126 441.905C524.116 441.175 529.906 440.215 535.496 439.025C537.546 438.595 539.569 438.131 541.566 437.635C542.036 437.525 542.496 437.415 542.956 437.295C547.089 436.229 550.888 434.144 554.007 431.229C557.125 428.315 559.463 424.666 560.806 420.615C562.409 415.92 562.638 410.865 561.466 406.045Z" fill="#2F2E41"/>
<path d="M343.636 566.565L328.906 559.505L326.596 558.395L322.906 567.455L297.146 573.125C295.872 573.404 294.721 574.083 293.861 575.063C293.001 576.043 292.476 577.272 292.365 578.572C292.253 579.871 292.56 581.172 293.24 582.284C293.92 583.396 294.939 584.262 296.146 584.755L321.316 595.025L329.306 587.835L327.346 597.485L336.826 601.355L347.216 568.285L343.636 566.565Z" fill="#2F2E41"/>
<path d="M434.16 552.611L435.1 554.991H434.16V552.611Z" fill="#2F2E41"/>
<path d="M429.03 555.499L413.596 560.847L411.173 561.684L414.926 570.718L400.611 592.872C399.903 593.967 399.563 595.259 399.641 596.561C399.719 597.862 400.212 599.105 401.046 600.107C401.881 601.108 403.014 601.817 404.281 602.129C405.547 602.441 406.879 602.339 408.084 601.84L433.195 591.427L433.814 580.696L439.211 588.932L448.67 585.012L432.784 554.203L429.03 555.499Z" fill="#2F2E41"/>
<path d="M368.056 158.554C368.207 160.149 368.706 161.692 369.519 163.073C370.331 164.455 371.436 165.642 372.756 166.55C374.077 167.458 375.58 168.066 377.161 168.33C378.741 168.594 380.361 168.509 381.905 168.08L404.066 200.117L411.625 181.338L389.421 153.793C388.528 151.247 386.732 149.117 384.373 147.807C382.015 146.496 379.258 146.097 376.624 146.684C373.99 147.27 371.664 148.803 370.084 150.991C368.505 153.178 367.783 155.869 368.056 158.554Z" fill="#A0616A"/>
<path d="M387.109 176.229L407.557 165.839L451.261 222.682L529.948 246.014C533.837 247.168 537.425 249.163 540.457 251.859C543.488 254.555 545.889 257.886 547.489 261.614C549.088 265.342 549.848 269.377 549.713 273.431C549.578 277.486 548.552 281.461 546.708 285.074C543.37 291.598 537.581 296.53 530.61 298.79C523.64 301.05 516.058 300.452 509.528 297.128L427.188 255.107L387.109 176.229Z" fill="#3F3D56"/>
<path d="M557.504 259.028C549.493 254.914 543.287 247.809 540.504 235.028L527.504 234.028L484.423 276.235C461.987 303.664 478.29 322.579 479.266 325.392L471.479 361.3L473.224 373.317L474.096 376.887L562.992 423.337L555.504 361.028L562.561 306.958C570.58 281.974 573.838 279.568 557.504 259.028Z" fill="#3F3D56"/>
<path d="M486.967 467.472C488.347 466.657 489.531 465.549 490.436 464.227C491.342 462.904 491.946 461.4 492.207 459.819C492.468 458.237 492.379 456.618 491.947 455.075C491.514 453.532 490.749 452.102 489.704 450.887L509.286 417.211L489.074 418.35L473.578 450.155C471.653 452.045 470.488 454.576 470.304 457.268C470.12 459.96 470.93 462.626 472.581 464.761C474.231 466.895 476.607 468.35 479.259 468.85C481.91 469.35 484.653 468.859 486.967 467.472Z" fill="#A0616A"/>
<path d="M494.868 442.713L476.774 428.619L509.654 364.901L497.334 283.757C496.725 279.746 497.006 275.651 498.158 271.761C499.31 267.871 501.305 264.282 503.999 261.25C506.694 258.218 510.024 255.816 513.751 254.214C517.479 252.613 521.513 251.853 525.568 251.986C532.891 252.235 539.816 255.38 544.824 260.729C549.832 266.078 552.513 273.195 552.28 280.519L549.236 372.912L494.868 442.713Z" fill="#3F3D56"/>
<path d="M570.068 576.009L581.922 586.825L629.284 546.25L611.788 530.286L570.068 576.009Z" fill="#FFB6B6"/>
<path d="M570.576 569.38L573.913 572.424L591.773 579.014L593.921 590.681L593.922 590.682C597.867 594.282 600.221 599.303 600.465 604.638C600.709 609.974 598.824 615.188 595.223 619.134L594.782 619.617L556.56 584.741L570.576 569.38Z" fill="#2F2E41"/>
<path d="M659.869 449.776L649.637 430.02C650.492 410.015 667.844 394.385 687.768 396.38C698.863 397.49 709.046 404.096 712.664 422.743C721.965 470.693 609.74 565.599 609.74 565.599L590.249 552.532L589.813 539.475L601.239 533.003L601.661 521.897L612.5 517.239L659.869 449.776Z" fill="#2F2E41"/>
<path d="M660.16 190.167C661.776 173.35 649.454 158.406 632.637 156.789C615.82 155.173 600.876 167.495 599.259 184.312C597.643 201.13 609.965 216.073 626.782 217.69C643.599 219.307 658.543 206.984 660.16 190.167Z" fill="#FFB6B6"/>
<path d="M607.422 158.696C610.627 151.651 623.578 147.797 643.855 149.037C664.131 150.277 666.967 174.585 666.967 174.585C679.406 186.826 648.693 213.444 647.445 212.259L648.581 206.812C650.462 197.791 655.416 191.087 650.899 181.062L645.679 180.621L635.607 181.572C634.979 181.631 634.349 181.482 633.814 181.148C633.279 180.814 632.869 180.313 632.647 179.723C632.424 179.133 632.403 178.486 632.584 177.882C632.766 177.278 633.141 176.751 633.652 176.381L633.751 176.31L633.559 175.941C629.922 177.204 626.189 178.341 622.359 178.199C618.05 178.039 613.529 175.883 611.839 171.916C611.39 170.827 611.165 169.659 611.175 168.482C605.175 170.235 601.848 177.104 601.848 177.104C601.848 177.104 604.218 165.74 607.422 158.696Z" fill="#2F2E41"/>
<path d="M654.339 573.009L640.945 581.847L600.482 534.389L620.251 521.346L654.339 573.009Z" fill="#FFB6B6"/>
<path d="M666.322 583.739L623.134 612.235L622.773 611.689C619.832 607.231 618.782 601.787 619.854 596.554C620.926 591.322 624.033 586.729 628.491 583.787L628.492 583.787L632.432 572.596L651.1 568.869L654.87 566.382L666.322 583.739Z" fill="#2F2E41"/>
<path d="M593.121 447.86L605.786 427.27C608.057 407.376 593.352 389.234 573.361 388.101C562.228 387.469 551.14 392.408 544.662 410.264C528.005 456.179 624.076 567.409 624.076 567.409L645.364 557.538L647.83 544.708L637.551 536.535L638.864 525.499L628.883 519.209L593.121 447.86Z" fill="#2F2E41"/>
<path d="M640.566 417.605C640.73 415.652 641.321 413.758 642.296 412.058C643.271 410.358 644.607 408.893 646.21 407.765C647.813 406.637 649.644 405.874 651.573 405.531C653.503 405.187 655.484 405.27 657.378 405.775L684.063 366.308L693.551 389.175L666.756 423.148C665.697 426.273 663.528 428.902 660.661 430.535C657.793 432.168 654.427 432.692 651.198 432.009C647.97 431.326 645.105 429.482 643.145 426.827C641.185 424.172 640.267 420.891 640.566 417.605Z" fill="#FFB6B6"/>
<path d="M678.244 411.686L733.287 345.314L733.174 344.965C733.044 344.565 725.256 320.604 717.565 298.59C716.381 295.2 715.199 291.856 714.047 288.652C713.55 287.269 713.06 285.914 712.576 284.588C709.31 275.642 706.409 268.224 704.575 264.645C700.538 256.568 693.86 250.114 685.65 246.355L685.442 246.274L685.226 246.335C680.839 247.596 677.011 250.315 674.376 254.044C671.741 257.772 670.455 262.287 670.73 266.844C672.176 288.84 678.715 310.199 689.83 329.235L696.165 340.055L663.197 393.77L678.244 411.686Z" fill="#FD8D3A"/>
<path d="M158.004 581.836C234.495 581.836 296.504 562.447 296.504 538.528C296.504 514.61 234.495 495.22 158.004 495.22C81.5125 495.22 19.5039 514.61 19.5039 538.528C19.5039 562.447 81.5125 581.836 158.004 581.836Z" fill="#F2F2F2"/>
<path d="M158.004 573.412C219.617 573.412 269.564 557.794 269.564 538.528C269.564 519.262 219.617 503.644 158.004 503.644C96.3911 503.644 46.4441 519.262 46.4441 538.528C46.4441 557.794 96.3911 573.412 158.004 573.412Z" fill="#E6E6E6"/>
<path d="M216.326 513.807C209.844 512.933 203.39 515.284 196.863 515.709C191.399 516.012 185.944 514.981 180.966 512.707C175.989 510.433 171.639 506.983 168.292 502.654C170.267 505.768 168.311 510.156 165.166 512.081C162.02 514.007 158.135 514.137 154.448 514.212L118.06 514.953L118.747 518.093C115.731 514.702 109.331 517.021 108.073 521.381C106.815 525.74 109.603 530.459 113.455 532.856C117.307 535.253 121.981 535.847 126.496 536.299C155.528 539.205 184.804 538.606 213.693 534.515C219.048 533.756 225.329 532.136 227.154 527.045C229.362 520.888 222.808 514.682 216.326 513.807Z" fill="#3F3D56"/>
<path d="M240.329 514.836C238.907 508.452 234.469 503.21 231.813 497.233C229.639 492.211 228.718 486.736 229.13 481.279C229.542 475.822 231.275 470.548 234.178 465.909C231.94 468.84 227.146 468.523 224.251 466.238C221.357 463.952 219.891 460.353 218.545 456.919L205.262 423.033L202.554 424.764C204.691 420.762 200.302 415.559 195.776 415.887C191.251 416.215 187.787 420.462 186.871 424.906C185.955 429.35 187.014 433.94 188.152 438.333C195.468 466.577 206.158 493.839 219.989 519.529C222.554 524.291 226.247 529.624 231.655 529.575C238.195 529.517 241.751 521.22 240.329 514.836Z" fill="#3F3D56"/>
<path d="M237.215 416.271C233.753 411.468 228.821 407.533 222.994 406.101C220.216 405.412 217.316 405.37 214.52 405.981C211.723 406.591 209.104 407.836 206.865 409.619C205.606 410.619 204.456 411.75 203.436 412.993C201.201 415.711 198.827 418.311 196.324 420.784C194.085 406.255 189.452 392.197 182.615 379.184C179.08 372.477 174.912 366.124 170.165 360.212C166.248 355.343 162 350.192 155.813 348.273C153.471 347.565 151.002 347.377 148.579 347.721C146.156 348.065 143.837 348.934 141.784 350.266C137.369 353.247 134.16 357.704 132.733 362.838C131.882 365.766 131.509 368.813 131.627 371.86C131.759 375.674 132.781 379.35 133.418 383.095C134.808 391.352 135.182 399.749 134.531 408.098C133.357 423.394 128.746 438.712 120.196 451.532C119.674 452.315 119.136 453.087 118.583 453.849C115.286 444.809 110.24 436.508 103.731 429.422C102.586 428.177 101.395 426.977 100.16 425.82C99.145 424.726 97.9288 423.839 96.5776 423.206C91.4587 421.224 87.78 427.026 88.2928 431.532C88.6647 434.799 90.8031 436.771 92.8164 439.164C95.0786 441.862 97.1228 444.735 98.9298 447.757C102.659 453.882 105.276 460.618 106.657 467.655C108.11 475.334 107.434 483.01 105.782 490.597C102.74 504.562 97.399 519.478 102.719 533.625C104.865 539.33 108.788 544.265 114.485 546.702C116.87 547.785 119.475 548.299 122.092 548.201C124.71 548.104 127.269 547.399 129.568 546.142C130.154 545.8 130.717 545.417 131.251 544.998C131.399 545.277 131.564 545.547 131.745 545.806C132.366 546.672 133.352 546.57 134.316 546.607C135.347 546.647 136.379 546.669 137.411 546.673C141.4 546.687 145.385 546.435 149.34 545.921C157.278 544.895 165.054 542.872 172.484 539.899C187.95 533.599 201.735 523.784 212.749 511.231C224.778 497.574 233.631 481.42 238.672 463.933C241.409 454.826 242.921 445.395 243.166 435.89C243.312 428.884 241.228 422.014 237.215 416.271Z" fill="#FEC700"/>
<path d="M94.9377 533.077C101.42 532.202 107.874 534.553 114.4 534.978C119.864 535.281 125.32 534.25 130.297 531.976C135.274 529.702 139.624 526.252 142.972 521.923C140.996 525.037 142.952 529.425 146.098 531.35C149.243 533.276 153.128 533.406 156.815 533.481L193.204 534.222L192.516 537.362C195.532 533.971 201.932 536.291 203.19 540.65C204.448 545.009 201.661 549.728 197.808 552.125C193.956 554.522 189.282 555.116 184.768 555.568C155.736 558.474 126.46 557.875 97.5707 553.784C92.2156 553.025 85.9343 551.405 84.109 546.314C81.9017 540.157 88.4558 533.951 94.9377 533.077Z" fill="#3F3D56"/>
<path d="M205.848 538.831C203.594 532.692 198.5 528.083 195.076 522.51C191.766 517.034 190.093 510.725 190.256 504.328C190.338 502.02 189.776 499.735 188.634 497.728C187.491 495.721 185.813 494.071 183.787 492.963C183.683 492.907 183.579 492.849 183.478 492.789C180.306 490.907 178.377 487.533 176.588 484.308L158.936 452.479C158.936 452.479 153.03 445.728 148.587 446.652C144.145 447.575 141.275 452.244 140.955 456.77C140.635 461.296 142.293 465.706 144.002 469.909C155.555 498.32 170.658 525.155 188.949 549.775C190.611 552.066 193.025 553.699 195.769 554.39C204.776 556.525 208.465 545.958 205.848 538.831Z" fill="#3F3D56"/>
<path d="M80.958 537.349C83.2127 531.209 88.3062 526.601 91.7304 521.028C95.0407 515.552 96.7132 509.243 96.5501 502.846C96.4684 500.538 97.0301 498.253 98.1726 496.246C99.315 494.239 100.993 492.589 103.019 491.481C103.124 491.425 103.227 491.367 103.329 491.307C106.5 489.425 108.43 486.051 110.219 482.826L127.87 450.997L130.326 453.071C128.737 448.821 133.777 444.246 138.219 445.169C142.661 446.093 145.532 450.762 145.852 455.288C146.172 459.814 144.514 464.224 142.805 468.427C131.251 496.838 116.149 523.673 97.8573 548.292C96.1959 550.583 93.7816 552.217 91.0372 552.908C82.0305 555.043 78.3411 544.475 80.958 537.349Z" fill="#3F3D56"/>
<path d="M108.643 409.895L108.808 409.645C110.12 409.597 111.399 409.216 112.523 408.538C113.647 407.859 114.58 406.905 115.233 405.766C115.886 404.626 116.237 403.339 116.254 402.026C116.272 400.713 115.954 399.418 115.331 398.261L108.643 409.895Z" fill="#FEC700"/>
<path d="M194.6 362.35C193.887 362.247 193.16 362.354 192.507 362.658C191.058 363.45 190.942 365.624 191.816 367.025C192.827 368.339 194.143 369.387 195.651 370.078C197.162 370.773 198.408 371.939 199.203 373.401C199.843 374.924 199.162 377.088 197.537 377.384L196.34 381.697C198.578 381.091 200.531 379.716 201.856 377.814C203.181 375.911 203.793 373.603 203.586 371.294C203.378 368.985 202.363 366.822 200.72 365.187C199.077 363.551 196.91 362.547 194.6 362.35Z" fill="#FEC700"/>
<path d="M228.145 374.73C230.026 380.681 229.842 387.094 227.621 392.928C228.868 391.778 229.871 390.39 230.574 388.846C231.276 387.303 231.663 385.634 231.712 383.939C231.761 382.244 231.47 380.556 230.858 378.974C230.245 377.393 229.323 375.95 228.145 374.73Z" fill="#FEC700"/>
<path d="M227.345 393.686C227.448 393.438 227.525 393.179 227.621 392.928C227 393.519 226.32 394.043 225.591 394.494L227.345 393.686Z" fill="#FEC700"/>
<path d="M358.387 172.152L371.558 124.233C372.011 122.594 373.095 121.202 374.573 120.361C376.051 119.521 377.802 119.301 379.442 119.749L389.885 122.62C391.524 123.073 392.917 124.157 393.757 125.635C394.598 127.113 394.818 128.864 394.369 130.504L381.197 178.422C380.745 180.061 379.661 181.453 378.183 182.294C376.705 183.134 374.954 183.354 373.314 182.906L362.871 180.035C361.232 179.582 359.839 178.498 358.998 177.02C358.158 175.542 357.938 173.791 358.387 172.152Z" fill="#3F3D56"/>
<path d="M379.992 122.529C379.108 122.287 378.165 122.406 377.368 122.859C376.572 123.312 375.988 124.062 375.744 124.946L362.572 172.864C362.33 173.747 362.449 174.691 362.902 175.488C363.355 176.284 364.105 176.868 364.988 177.112L375.432 179.983C376.316 180.225 377.259 180.106 378.056 179.653C378.852 179.2 379.436 178.45 379.68 177.566L392.852 129.648C393.094 128.764 392.975 127.821 392.522 127.024C392.069 126.228 391.319 125.644 390.436 125.4L379.992 122.529Z" fill="#FD8D3A"/>
<path d="M51.8435 384.047C51.3994 384.067 50.9598 383.951 50.5842 383.713C50.2086 383.475 49.9151 383.128 49.7436 382.718C49.5722 382.308 49.5309 381.855 49.6254 381.42C49.7199 380.986 49.9457 380.591 50.2722 380.289L50.4207 379.699L50.3617 379.557C48.3657 374.797 35.6287 388.065 35.078 392.539C34.8355 394.516 34.9378 396.52 35.3804 398.462C31.2546 389.463 29.1122 379.681 29.0984 369.781C29.0976 367.296 29.2356 364.814 29.5119 362.345C29.7402 360.321 30.057 358.311 30.4622 356.316C32.6735 345.49 37.4213 335.343 44.3157 326.708C48.2585 326.928 51.714 326.328 52.0477 318.686C52.107 317.327 53.1152 316.15 53.3374 314.811C52.961 314.86 52.5784 314.891 52.202 314.916C52.0847 314.922 51.9613 314.928 51.844 314.934L51.7998 314.936C51.3861 314.955 50.9759 314.853 50.6185 314.644C50.2611 314.435 49.9718 314.127 49.7854 313.757C49.5989 313.388 49.5234 312.972 49.5678 312.56C49.6122 312.148 49.7746 311.758 50.0356 311.437C50.1981 311.237 50.3608 311.037 50.5235 310.837C50.7703 310.528 51.0233 310.226 51.2702 309.917C51.2986 309.888 51.3254 309.857 51.3504 309.825C51.6343 309.473 51.9181 309.128 52.202 308.776C51.6838 307.972 50.9869 307.298 50.1656 306.807C47.3208 305.141 43.3962 306.295 41.3413 308.868C39.2803 311.442 38.8915 315.052 39.6073 318.267C40.3112 321.002 41.4756 323.598 43.0507 325.943C42.8964 326.14 42.7359 326.332 42.5816 326.529C39.7616 330.156 37.3036 334.049 35.2432 338.155C35.8262 333.602 28.6974 317.157 25.9405 313.673C25.2114 312.738 24.2212 312.039 23.0951 311.666C21.969 311.293 20.7576 311.262 19.614 311.577C18.4704 311.893 17.446 312.54 16.6702 313.437C15.8943 314.335 15.402 315.442 15.2553 316.619C15.2497 316.671 15.2442 316.722 15.2388 316.773C15.6483 317.004 16.0491 317.249 16.4413 317.509C16.934 317.838 17.3157 318.308 17.5366 318.858C17.7574 319.408 17.807 320.012 17.6788 320.59C17.5506 321.169 17.2507 321.695 16.8183 322.1C16.3859 322.505 15.8412 322.77 15.2556 322.861L15.1956 322.87C9.71435 330.696 27.2857 351.065 31.684 346.492C29.6138 352.359 28.3153 358.469 27.821 364.671C27.5412 368.33 27.5577 372.005 27.8704 375.661L27.8519 375.532C26.8746 367.569 10.1095 355.729 5.21376 356.715C2.39348 357.284 -0.384363 357.154 0.0438966 359.999L0.0647401 360.136C0.824623 360.445 1.56449 360.802 2.28004 361.203C2.68954 361.434 3.09036 361.679 3.48254 361.939C3.97522 362.268 4.35698 362.738 4.57779 363.288C4.7986 363.838 4.84817 364.442 4.72 365.02C4.59183 365.599 4.2919 366.125 3.85951 366.53C3.42712 366.935 2.88244 367.2 2.29683 367.291L2.23683 367.3C2.19365 367.306 2.1566 367.312 2.11346 367.318C-0.381538 375.903 18.1213 389.758 29.3699 385.349H29.3761C30.4908 390.194 32.106 394.909 34.1955 399.419H51.4121C51.4738 399.228 51.5293 399.03 51.5849 398.839C49.9913 398.939 48.3914 398.844 46.821 398.555C48.0984 396.988 49.3757 395.408 50.6531 393.841C50.6815 393.811 50.7083 393.78 50.7333 393.748C51.3812 392.946 52.0353 392.15 52.6833 391.348L52.6836 391.347C52.7182 388.888 52.4354 386.434 51.8435 384.047ZM32.1283 345.264L32.1373 345.252L32.1283 345.276V345.264ZM28.3147 379.641L28.1666 379.308C28.1728 379.068 28.1728 378.827 28.1666 378.58C28.1666 378.512 28.1543 378.444 28.1543 378.376C28.2098 378.802 28.2592 379.228 28.3209 379.654L28.3147 379.641Z" fill="#F2F2F2"/>
<path d="M790.312 415.047C789.72 417.434 789.438 419.887 789.472 422.346L789.473 422.347C790.12 423.15 790.774 423.946 791.422 424.748C791.447 424.78 791.474 424.811 791.503 424.84C792.78 426.408 794.057 427.988 795.335 429.555C793.764 429.844 792.165 429.939 790.571 429.839C790.626 430.03 790.682 430.228 790.744 430.419H807.96C810.05 425.909 811.665 421.194 812.78 416.349H812.786C824.034 420.758 842.537 406.903 840.042 398.318C839.999 398.312 839.962 398.306 839.919 398.3L839.859 398.291C839.273 398.2 838.729 397.935 838.296 397.53C837.864 397.125 837.564 396.599 837.436 396.02C837.308 395.441 837.357 394.838 837.578 394.288C837.799 393.738 838.181 393.268 838.673 392.939C839.065 392.679 839.466 392.434 839.876 392.203C840.591 391.801 841.331 391.445 842.091 391.135L842.112 390.999C842.54 388.154 839.762 388.283 836.942 387.715C832.046 386.729 815.281 398.569 814.304 406.532L814.285 406.661C814.598 403.005 814.615 399.33 814.335 395.671C813.84 389.469 812.542 383.358 810.472 377.492C814.87 382.065 832.441 361.696 826.96 353.87L826.9 353.861C826.315 353.77 825.77 353.505 825.337 353.1C824.905 352.695 824.605 352.169 824.477 351.59C824.349 351.012 824.398 350.408 824.619 349.858C824.84 349.308 825.222 348.838 825.714 348.509C826.106 348.25 826.507 348.004 826.917 347.773C826.912 347.722 826.906 347.67 826.9 347.619C826.754 346.442 826.261 345.335 825.486 344.437C824.71 343.54 823.685 342.893 822.542 342.577C821.398 342.262 820.187 342.293 819.061 342.666C817.935 343.039 816.944 343.738 816.215 344.673C813.458 348.157 806.33 364.601 806.913 369.155C804.852 365.049 802.394 361.155 799.574 357.529C799.42 357.332 799.259 357.14 799.105 356.943C800.68 354.598 801.844 352.002 802.548 349.266C803.264 346.051 802.875 342.441 800.814 339.868C798.759 337.295 794.835 336.141 791.99 337.807C791.169 338.298 790.472 338.972 789.954 339.776C790.238 340.127 790.521 340.473 790.805 340.825C790.83 340.857 790.857 340.888 790.886 340.917C791.132 341.226 791.385 341.528 791.632 341.837C791.795 342.037 791.958 342.236 792.12 342.437C792.381 342.758 792.544 343.148 792.588 343.56C792.632 343.972 792.557 344.387 792.37 344.757C792.184 345.127 791.895 345.435 791.537 345.644C791.18 345.853 790.77 345.955 790.356 345.936L790.312 345.934C790.194 345.928 790.071 345.922 789.954 345.916C789.577 345.891 789.195 345.86 788.818 345.811C789.041 347.15 790.049 348.327 790.108 349.686C790.442 357.328 793.897 357.928 797.84 357.708C804.734 366.343 809.482 376.49 811.693 387.316C812.101 389.309 812.418 391.319 812.644 393.345C812.92 395.814 813.058 398.296 813.057 400.78C813.043 410.681 810.901 420.463 806.775 429.462C807.218 427.52 807.32 425.516 807.078 423.538C806.527 419.065 793.79 405.797 791.794 410.557L791.735 410.698L791.884 411.289C792.21 411.591 792.436 411.986 792.53 412.42C792.625 412.854 792.584 413.307 792.412 413.718C792.241 414.128 791.947 414.475 791.572 414.713C791.196 414.951 790.756 415.068 790.312 415.047ZM810.028 376.276L810.018 376.252L810.028 376.264V376.276ZM813.835 410.654C813.897 410.228 813.946 409.802 814.001 409.376C814.001 409.444 813.989 409.512 813.989 409.58C813.983 409.827 813.983 410.068 813.989 410.308L813.841 410.641L813.835 410.654Z" fill="#F2F2F2"/>
</g>
<defs>
<clipPath id="clip0_755_346">
<rect width="842.156" height="619.617" fill="white"/>
</clipPath>
</defs>
</svg>
