<svg width="40" height="40" viewBox="0 0 40 40" fill="none" xmlns="http://www.w3.org/2000/svg">
<path fill-rule="evenodd" clip-rule="evenodd" d="M20 40C31.0457 40 40 31.0457 40 20C40 8.9543 31.0457 0 20 0C8.9543 0 0 8.9543 0 20C0 31.0457 8.9543 40 20 40Z" fill="white"/>
<path fill-rule="evenodd" clip-rule="evenodd" d="M22.5449 17.7991C22.2326 17.7003 21.8735 17.6345 21.5456 17.6345C21.1397 17.6345 20.2654 17.9143 20.2654 18.4577V19.7583H22.3419V21.948H20.2654V27.9903H18.1733V21.948H17.1428V19.7583H18.1733V18.6552C18.1733 16.9924 18.8915 15.6094 20.6245 15.6094C21.2178 15.6094 22.2794 15.6423 22.8571 15.8563L22.5449 17.7991Z" fill="#444444"/>
</svg>
