<svg width="48" height="48" viewBox="0 0 48 48" fill="none" xmlns="http://www.w3.org/2000/svg">
<path fill-rule="evenodd" clip-rule="evenodd" d="M24 48C37.2548 48 48 37.2548 48 24C48 10.7452 37.2548 0 24 0C10.7452 0 0 10.7452 0 24C0 37.2548 10.7452 48 24 48Z" fill="white"/>
<path d="M29.5667 15H17.5C16.1217 15 15 16.1217 15 17.5V29.5667C15 30.9453 16.1217 32.0667 17.5 32.0667H29.5667C30.9453 32.0667 32.0667 30.9453 32.0667 29.5667V17.5C32.0667 16.1217 30.9453 15 29.5667 15ZM31.0667 29.5667C31.0667 30.3937 30.3937 31.0667 29.5667 31.0667H17.5C16.673 31.0667 16 30.3937 16 29.5667V17.5C16 16.673 16.673 16 17.5 16H29.5667C30.3937 16 31.0667 16.673 31.0667 17.5V29.5667Z" fill="#444444"/>
<path d="M29.0334 17.0332C28.4821 17.0332 28.0334 17.4819 28.0334 18.0332C28.0334 18.5845 28.4821 19.0332 29.0334 19.0332C29.5848 19.0332 30.0334 18.5845 30.0334 18.0332C30.0334 17.4819 29.5848 17.0332 29.0334 17.0332Z" fill="#444444"/>
<path d="M23.5334 19.0332C21.0521 19.0332 19.0334 21.0519 19.0334 23.5332C19.0334 26.0145 21.0521 28.0332 23.5334 28.0332C26.0148 28.0332 28.0334 26.0145 28.0334 23.5332C28.0334 21.0519 26.0148 19.0332 23.5334 19.0332ZM23.5334 27.0332C21.6034 27.0332 20.0334 25.4632 20.0334 23.5332C20.0334 21.6032 21.6034 20.0332 23.5334 20.0332C25.4634 20.0332 27.0334 21.6032 27.0334 23.5332C27.0334 25.4632 25.4634 27.0332 23.5334 27.0332Z" fill="#444444"/>
</svg>
