<svg width="40" height="40" viewBox="0 0 40 40" fill="none" xmlns="http://www.w3.org/2000/svg">
<path fill-rule="evenodd" clip-rule="evenodd" d="M20 40C31.0457 40 40 31.0457 40 20C40 8.9543 31.0457 0 20 0C8.9543 0 0 8.9543 0 20C0 31.0457 8.9543 40 20 40Z" fill="white"/>
<path d="M27.317 15.1597C26.7365 15.4143 26.118 15.5831 25.4731 15.665C26.1365 15.2689 26.6429 14.6465 26.8809 13.8963C26.2624 14.265 25.5795 14.5255 24.8517 14.6709C24.2643 14.0455 23.4273 13.6582 22.5141 13.6582C20.7424 13.6582 19.3161 15.0963 19.3161 16.8592C19.3161 17.1128 19.3375 17.3567 19.3902 17.5889C16.7297 17.4592 14.3756 16.1841 12.7941 14.2416C12.518 14.7206 12.3561 15.2689 12.3561 15.8592C12.3561 16.9675 12.9268 17.9499 13.7775 18.5187C13.2634 18.5089 12.759 18.3597 12.3317 18.1245C12.3317 18.1343 12.3317 18.147 12.3317 18.1597C12.3317 19.7148 13.4409 21.0065 14.8956 21.3041C14.6351 21.3753 14.3512 21.4094 14.0565 21.4094C13.8517 21.4094 13.6448 21.3977 13.4507 21.3548C13.8653 22.6221 15.0419 23.5538 16.4409 23.5841C15.3522 24.4358 13.9697 24.9489 12.4731 24.9489C12.2107 24.9489 11.959 24.9372 11.7073 24.905C13.1248 25.8192 14.8048 26.3411 16.6165 26.3411C22.5053 26.3411 25.7248 21.4631 25.7248 17.2348C25.7248 17.0933 25.72 16.9567 25.7131 16.8211C26.3483 16.3704 26.8819 15.8075 27.317 15.1597Z" fill="#444444"/>
</svg>
