<svg width="116" height="116" viewBox="0 0 116 116" fill="none" xmlns="http://www.w3.org/2000/svg">
<path d="M106.314 58.0025C106.314 31.3225 84.6602 9.66907 57.9802 9.66907C31.3002 9.66907 9.64697 31.3225 9.64697 58.0025C9.64697 84.6825 31.3002 106.336 57.9802 106.336" stroke="#FA7436" stroke-width="3" stroke-linecap="round" stroke-linejoin="round"/>
<path d="M38.6393 14.5038H43.4728C34.0478 42.7304 34.0478 73.2772 43.4728 101.504H38.6393" stroke="#FA7436" stroke-width="3" stroke-linecap="round" stroke-linejoin="round"/>
<path d="M72.4683 14.5037C77.1567 28.6169 79.525 43.3104 79.525 58.0037" stroke="#FA7436" stroke-width="3" stroke-linecap="round" stroke-linejoin="round"/>
<path d="M14.4683 77.3372V72.5039C28.5817 77.1922 43.2749 79.5607 57.9682 79.5607" stroke="#FA7436" stroke-width="3" stroke-linecap="round" stroke-linejoin="round"/>
<path d="M14.4683 43.5028C42.6949 34.0778 73.2417 34.0778 101.468 43.5028" stroke="#FA7436" stroke-width="3" stroke-linecap="round" stroke-linejoin="round"/>
<path d="M87.9667 103.433C96.5087 103.433 103.433 96.5088 103.433 87.9667C103.433 79.4247 96.5087 72.5 87.9667 72.5C79.4247 72.5 72.5 79.4247 72.5 87.9667C72.5 96.5088 79.4247 103.433 87.9667 103.433Z" stroke="#FA7436" stroke-width="3" stroke-linecap="round" stroke-linejoin="round"/>
<path d="M106.333 106.333L101.5 101.5" stroke="#FA7436" stroke-width="3" stroke-linecap="round" stroke-linejoin="round"/>
</svg>
