<svg width="84" height="84" viewBox="0 0 84 84" fill="none" xmlns="http://www.w3.org/2000/svg">
<path d="M66.15 21H59.5C59.5 15.05 54.95 10.5 49 10.5H35C29.05 10.5 24.5 15.05 24.5 21H17.85C11.9 21 7 25.9 7 31.85V35.35C7 38.5 8.4 41.3 10.5 43.4V59.5C10.5 67.2 16.8 73.5 24.5 73.5H59.5C67.2 73.5 73.5 67.2 73.5 59.5V43.75C75.6 41.65 77 38.85 77 35.7V32.2C77 25.9 72.1 21 66.15 21ZM35 17.5H49C51.1 17.5 52.5 18.9 52.5 21H31.5C31.5 18.9 32.9 17.5 35 17.5ZM14 31.85C14 29.75 15.75 28 17.85 28H66.15C68.25 28 70 29.75 70 31.85V35.35C70 36.75 69.3 38.15 67.9 39.2C67.55 39.55 66.85 39.9 66.5 39.9L45.5 44.45C45.15 43.05 43.75 41.65 42 41.65C40.25 41.65 39.2 42.7 38.5 44.45L17.5 39.9C16.8 39.9 16.45 39.55 16.1 39.2H15.75C14.7 38.5 14 37.1 14 35.35V31.85ZM66.5 59.5C66.5 63.35 63.35 66.5 59.5 66.5H24.5C20.65 66.5 17.5 63.35 17.5 59.5V47.25L38.5 51.8V52.5C38.5 54.6 39.9 56 42 56C44.1 56 45.5 54.6 45.5 52.5V51.8L66.5 47.25V59.5Z" fill="#999999"/>
</svg>
