<svg width="116" height="116" viewBox="0 0 116 116" fill="none" xmlns="http://www.w3.org/2000/svg">
<path d="M51.9643 11.8408C55.2993 8.98911 60.7611 8.98911 64.1443 11.8408L71.7811 18.4146C73.2311 19.6713 75.9376 20.6862 77.8711 20.6862H86.0878C91.2111 20.6862 95.4161 24.8909 95.4161 30.0141V38.2311C95.4161 40.1161 96.4311 42.8713 97.6876 44.3213L104.261 51.9576C107.113 55.2926 107.113 60.7544 104.261 64.1378L97.6876 71.7741C96.4311 73.2241 95.4161 75.9309 95.4161 77.8644V86.0813C95.4161 91.2046 91.2111 95.4094 86.0878 95.4094H77.8711C75.9861 95.4094 73.2311 96.4241 71.7811 97.6809L64.1443 104.254C60.8093 107.106 55.3478 107.106 51.9643 104.254L44.3278 97.6809C42.8778 96.4241 40.1711 95.4094 38.2378 95.4094H29.8761C24.7528 95.4094 20.5477 91.2046 20.5477 86.0813V77.8159C20.5477 75.9309 19.5328 73.2241 18.3244 71.7741L11.7994 64.0894C8.99606 60.7544 8.99606 55.3411 11.7994 52.0061L18.3244 44.3213C19.5328 42.8713 20.5477 40.1646 20.5477 38.2796V30.0141C20.5477 24.8909 24.7528 20.6862 29.8761 20.6862H38.2378C40.1228 20.6862 42.8778 19.6713 44.3278 18.4146L51.9643 11.8408Z" stroke="#FA7436" stroke-width="3" stroke-linecap="round" stroke-linejoin="round"/>
<path d="M47.7973 71.6302L54.8053 77.0434C55.7238 77.9617 57.7538 78.3969 59.1071 78.3969H67.6621C70.3688 78.3969 73.3171 76.3669 73.9938 73.6604L79.4071 57.1302C80.5188 53.9884 78.4888 51.2337 75.1056 51.2337H66.0673C64.7138 51.2337 63.6021 50.1221 63.7956 48.5271L64.9071 41.2771C65.3421 39.2471 63.9888 36.9754 61.9588 36.2987C60.1706 35.6221 57.8988 36.5402 56.9806 37.8934L47.7003 51.6684" stroke="#FA7436" stroke-width="3" stroke-miterlimit="10"/>
<path d="M36.25 71.6304V49.4941C36.25 46.3041 37.6033 45.1924 40.7933 45.1924H43.065C46.2067 45.1924 47.6083 46.3041 47.6083 49.4941V71.6304C47.6083 74.7722 46.255 75.9322 43.065 75.9322H40.7933C37.6033 75.9322 36.25 74.8204 36.25 71.6304Z" stroke="#FA7436" stroke-width="3" stroke-linecap="round" stroke-linejoin="round"/>
</svg>
